<svg width="397" height="147" viewBox="0 0 397 147" fill="none" xmlns="http://www.w3.org/2000/svg">
<path fill-rule="evenodd" clip-rule="evenodd" d="M55.2376 8.93428C50.0076 11.5873 44.3396 18.0163 43.0096 22.8063C38.0426 40.6843 52.9546 57.5153 70.5286 53.8673C77.3396 52.4533 83.6156 47.8663 87.0076 41.8243C89.0186 38.2413 89.5066 35.9883 89.5076 30.2933C89.5076 24.1603 89.1036 22.5613 86.4836 18.3243C84.8206 15.6343 81.5216 12.0713 79.1536 10.4063C75.4176 7.78028 73.8286 7.33828 67.1766 7.07328C60.8896 6.82328 58.7386 7.15828 55.2376 8.93428ZM77.8076 22.0713C78.4676 22.7313 79.0076 23.7723 79.0076 24.3843C79.0076 26.3473 64.9086 40.8713 63.0016 40.8713C60.5076 40.8713 52.9026 31.9113 53.2406 29.3713C53.6806 26.0743 58.0246 26.1623 60.7446 29.5233L63.0496 32.3713L68.5276 26.6213C74.1316 20.7383 75.7036 19.9673 77.8076 22.0713ZM32.5076 32.6173C28.3236 35.6613 20.1656 43.8363 18.7016 46.4533C17.8486 47.9783 19.4066 50.8713 21.0816 50.8713C21.5376 50.8713 25.3326 47.4493 29.5146 43.2673C36.0236 36.7593 37.0746 35.2343 36.8136 32.6853L36.5076 29.7073L32.5076 32.6173ZM95.0076 32.7873C95.0076 35.1733 96.5286 37.2953 102.562 43.3293C109.061 49.8273 110.389 50.7383 112.062 49.8423C113.132 49.2693 114.008 48.3163 114.008 47.7233C114.008 46.3353 100.215 32.5593 97.2576 30.9923C95.1606 29.8823 95.0076 30.0043 95.0076 32.7873ZM6.6746 46.5383C5.4376 47.7753 5.9956 61.8993 7.5856 69.5973C11.3586 87.8613 19.4086 96.1573 37.4986 100.424C47.6936 102.829 48.0116 102.714 47.9856 96.6213C47.9436 86.6183 42.4046 79.4793 31.4316 75.2893C22.7826 71.9863 27.8556 70.6033 38.0886 73.4743C48.5276 76.4033 53.8826 83.0273 57.9666 98.0623C59.6246 104.167 63.0076 125.782 63.0076 130.271C63.0076 132.58 52.1426 130.16 43.5076 125.927C33.7546 121.147 25.5796 113.328 20.5496 103.97C18.5986 100.34 15.2496 95.4533 13.1086 93.1093L9.2146 88.8473L10.1036 92.8033C12.5526 103.704 17.6716 112.762 25.9906 120.921C32.9606 127.757 38.4066 131.011 48.6176 134.443C55.8156 136.862 57.5156 137.053 68.0076 136.629C76.7086 136.276 80.9676 135.609 85.5076 133.885C98.2026 129.066 109.755 119.302 116.286 107.871C118.72 103.611 123.008 92.1433 123.008 89.8923C123.008 89.3193 120.758 91.3343 118.008 94.3713C115.258 97.4083 113.008 100.359 113.008 100.93C113.008 102.945 106.231 112.432 101.401 117.18C95.4296 123.048 82.6746 129.524 74.7576 130.708L69.0076 131.568V116.443C69.0076 89.6963 66.3266 77.4273 58.6676 69.1183C52.2446 62.1503 48.4206 60.6173 33.1406 58.8863C22.5336 57.6853 18.1156 55.7763 12.4746 49.9623C8.3826 45.7443 7.8076 45.4043 6.6746 46.5383ZM119.491 49.8883C113.9 55.6143 108.907 57.6883 97.9726 58.8273C84.5156 60.2283 80.1436 61.9773 74.0906 68.3773C71.2946 71.3333 69.0076 74.1723 69.0076 74.6853C69.0076 75.1993 69.6436 77.4223 70.4206 79.6243C71.1976 81.8273 72.1606 86.2463 72.5596 89.4443L73.2866 95.2593L75.2246 90.3153C77.6356 84.1653 81.2876 79.2883 85.3736 76.7653C89.7416 74.0673 98.3356 71.6773 102.237 72.0753C105.406 72.3983 105.302 72.5063 98.9336 75.4983C87.7446 80.7543 83.0076 87.3693 83.0076 97.7373C83.0076 101.587 83.1976 101.871 85.7776 101.871C89.5986 101.871 102.337 98.2463 107.36 95.7293C119.07 89.8623 124.723 78.1253 125.714 57.6213C126.373 44.0073 125.858 43.3683 119.491 49.8883Z" fill="#D2CBAB"/>
<path d="M341.815 82.9734C345.468 69.7954 361.866 27.6104 368.31 14.8144C371.657 8.16844 372.826 7.21844 376.103 8.47544C377.324 8.94444 376.883 10.3864 373.736 16.2254C366.015 30.5504 350.593 70.0594 352.124 71.5904C352.358 71.8244 353.59 70.5274 354.863 68.7084C362.519 57.7664 369.846 51.6824 376.93 50.3824C381.999 49.4524 384.72 50.5594 386.237 54.1664C388.803 60.2704 385.105 66.1244 375.347 71.4024C370.444 74.0544 369.915 74.6494 370.466 76.8884C371.438 80.8444 373.615 83.5954 376.826 84.9254C379.468 86.0194 380.207 85.8755 383.649 83.5975C389.082 80.0024 390.777 81.8374 386.735 86.9404C383.265 91.3214 377.564 94.3174 374.27 93.4904C369.166 92.2094 360.605 79.3714 362.157 75.3254C362.472 74.5044 365.551 72.5674 368.998 71.0204C376.136 67.8184 378.017 65.9964 378.017 62.2834C378.017 57.3264 373.281 56.5294 367.213 60.4644C362.118 63.7684 356.702 71.1174 351.047 82.4004C348.566 87.3504 346.446 91.5054 346.336 91.6334C346.225 91.7614 344.753 91.3444 343.064 90.7064L339.992 89.5474L341.815 82.9734Z" fill="#D8B384"/>
<path d="M142.016 20.3254C142.154 20.1904 143.842 19.6624 145.767 19.1514C148.873 18.3284 149.407 18.4794 150.512 20.4924C153.502 25.9384 154.916 35.8304 155.473 55.2054L156.044 75.0094L159.858 67.9804C169.486 50.2364 181.801 35.4544 194.244 26.7064C200.66 22.1964 201.324 21.9414 202.494 23.5424C203.194 24.4994 203.767 25.5684 203.767 25.9174C203.767 26.2654 200.82 28.9424 197.217 31.8654C184.632 42.0764 169.271 62.3904 159.763 81.3974C155.05 90.8194 153.883 92.4444 151.639 92.7044C145.875 93.3744 144.947 89.3824 146.681 71.4004C147.751 60.3064 146.256 38.0424 143.799 28.4854C142.68 24.1314 141.877 20.4594 142.016 20.3254Z" fill="#D8B384"/>
<path d="M225.34 83.8664C226.974 75.2905 230.107 64.6484 233.941 54.6504C236.091 49.0434 237.399 46.9004 238.673 46.9004C241.444 46.9004 241.637 47.6884 240.096 52.7034C237.274 61.8884 233.816 75.2824 234.175 75.6414C234.375 75.8414 235.571 74.2944 236.833 72.2034C247.437 54.6214 261.627 44.7604 267.651 50.7844C270.717 53.8504 270.295 57.6104 265.716 68.0174C261.141 78.4134 260.77 83.1874 264.496 83.7174C265.759 83.8964 268.213 82.8994 270.156 81.4174C274.477 78.1214 275.437 79.4504 272.189 84.2304C269.594 88.0484 263.353 91.9004 259.761 91.9004C257.323 91.9004 252.767 87.6894 252.767 85.4364C252.767 84.5814 254.567 79.6694 256.767 74.5194C262.242 61.7044 261.953 57.9004 255.502 57.9004C250.51 57.9004 243.155 66.4954 236.221 80.4334L230.235 92.4664L227.137 91.5774L224.04 90.6894L225.34 83.8664Z" fill="#D8B384"/>
<path d="M306.669 89.0964C295.524 79.1124 307.277 54.4304 324.813 50.9924C331.362 49.7094 331.488 49.7244 332.057 51.9004C332.499 53.5924 332.087 53.9004 329.385 53.9004C324.932 53.9004 317.923 57.7214 314.518 62.0054C308.164 69.9994 310.65 82.9494 318.687 83.7244C323.964 84.2335 326.434 83.1754 328.76 79.4114C331.046 75.7124 331.667 69.9084 330.436 63.7274C329.793 60.4934 329.969 59.9714 331.91 59.3554C334.719 58.4634 336.34 60.5664 337.182 66.1954C339.815 83.7974 318.56 99.7494 306.669 89.0964Z" fill="#D8B384"/>
<path d="M281.697 60.3954C284.761 60.0624 288.167 59.6514 289.267 59.4814C290.367 59.3114 293.404 59.1114 296.017 59.0364C300.362 58.9124 300.767 59.0984 300.767 61.2274C300.767 63.4194 300.2 63.6274 291.017 64.8014C285.654 65.4874 280.311 66.2744 279.142 66.5514C277.392 66.9654 276.938 66.5194 276.572 64.0264C276.131 61.0214 276.169 60.9944 281.697 60.3954Z" fill="#D8B384"/>
<path fill-rule="evenodd" clip-rule="evenodd" d="M212.767 48.9114C197.883 51.4794 183.305 62.4994 178.775 74.6094C176.345 81.1044 176.835 85.6764 180.313 88.9434C182.322 90.8314 183.489 91.0884 188.253 90.6934C195.233 90.1144 200.35 86.7215 207.203 78.1274C209.917 74.7234 212.241 72.0424 212.366 72.1694C212.492 72.2964 211.203 77.1914 209.502 83.0484L206.41 93.6954L199.015 96.9454C184.684 103.243 175.806 111.957 173.696 121.797C172.757 126.174 172.862 127.431 174.434 130.649C177.022 135.945 180.397 137.326 187.267 135.9C197.499 133.776 204.621 123.987 208.843 106.241C210 101.378 211.26 96.7774 211.643 96.0164C212.026 95.2544 214.327 93.8544 216.757 92.9044C219.187 91.9544 221.346 90.6644 221.554 90.0384C222.038 88.5884 221.867 88.6014 216.767 90.4004C214.429 91.2254 212.38 91.9004 212.213 91.9004C211.66 91.9004 216.568 74.4884 218.8 68.5314C220.615 63.6894 220.761 62.5104 219.633 61.7964C217.615 60.5184 217.145 60.6744 215.513 63.1654C209.443 72.4294 197.937 82.9004 193.827 82.9004C188.989 82.9004 186.306 78.1544 187.894 72.4044C189.997 64.7854 200.415 56.3004 211.273 53.3614C216.294 52.0024 217.767 51.1834 217.767 49.7524C217.767 48.7334 217.654 47.9534 217.517 48.0184C217.38 48.0824 215.242 48.4854 212.767 48.9114ZM191.171 125.647C196.913 122.909 202.631 112.547 205.242 100.15C205.624 98.3344 205.518 96.9004 205.001 96.9004C203.321 96.9004 192.144 104.589 188.44 108.293C181.231 115.503 180.011 121.526 185.009 125.24C187.615 127.178 187.92 127.198 191.171 125.647Z" fill="#D8B384"/>
</svg>
