<svg width="16" height="17" viewBox="0 0 16 17" fill="none" xmlns="http://www.w3.org/2000/svg">
<g clip-path="url(#clip0_476_91045)">
<rect width="16" height="16" transform="translate(0 0.500183)" fill="white" fill-opacity="0.01"/>
<g clip-path="url(#clip1_476_91045)">
<path d="M7.99976 15.4994C6.14324 15.4994 4.36276 14.7619 3.05001 13.4491C1.73725 12.1364 0.999756 10.3559 0.999756 8.49936C0.999756 6.64284 1.73725 4.86237 3.05001 3.54961C4.36276 2.23686 6.14324 1.49936 7.99976 1.49936C9.85627 1.49936 11.6367 2.23686 12.9495 3.54961C14.2623 4.86237 14.9998 6.64284 14.9998 8.49936C14.9998 10.3559 14.2623 12.1364 12.9495 13.4491C11.6367 14.7619 9.85627 15.4994 7.99976 15.4994ZM7.99976 16.4994C10.1215 16.4994 12.1563 15.6565 13.6566 14.1562C15.1569 12.6559 15.9998 10.6211 15.9998 8.49936C15.9998 6.37763 15.1569 4.3428 13.6566 2.8425C12.1563 1.34221 10.1215 0.499359 7.99976 0.499359C5.87802 0.499359 3.84319 1.34221 2.3429 2.8425C0.842611 4.3428 -0.000244141 6.37763 -0.000244141 8.49936C-0.000244141 10.6211 0.842611 12.6559 2.3429 14.1562C3.84319 15.6565 5.87802 16.4994 7.99976 16.4994Z" fill="white"/>
<path d="M7.99976 4.49936C8.13236 4.49936 8.25954 4.55204 8.35331 4.64581C8.44708 4.73957 8.49976 4.86675 8.49976 4.99936V7.99936H11.4998C11.6324 7.99936 11.7595 8.05204 11.8533 8.14581C11.9471 8.23957 11.9998 8.36675 11.9998 8.49936C11.9998 8.63197 11.9471 8.75914 11.8533 8.85291C11.7595 8.94668 11.6324 8.99936 11.4998 8.99936H8.49976V11.9994C8.49976 12.132 8.44708 12.2591 8.35331 12.3529C8.25954 12.4467 8.13236 12.4994 7.99976 12.4994C7.86715 12.4994 7.73997 12.4467 7.6462 12.3529C7.55243 12.2591 7.49976 12.132 7.49976 11.9994V8.99936H4.49976C4.36715 8.99936 4.23997 8.94668 4.1462 8.85291C4.05243 8.75914 3.99976 8.63197 3.99976 8.49936C3.99976 8.36675 4.05243 8.23957 4.1462 8.14581C4.23997 8.05204 4.36715 7.99936 4.49976 7.99936H7.49976V4.99936C7.49976 4.86675 7.55243 4.73957 7.6462 4.64581C7.73997 4.55204 7.86715 4.49936 7.99976 4.49936Z" fill="white"/>
</g>
</g>
<defs>
<clipPath id="clip0_476_91045">
<rect width="16" height="16" fill="white" transform="translate(0 0.500183)"/>
</clipPath>
<clipPath id="clip1_476_91045">
<rect width="16" height="16" fill="white" transform="translate(0 0.500183)"/>
</clipPath>
</defs>
</svg>
