<svg width="21" height="20" viewBox="0 0 21 20" fill="none" xmlns="http://www.w3.org/2000/svg">
<g clip-path="url(#clip0_459_104494)">
<rect width="20" height="20" transform="translate(0.5)" fill="white" fill-opacity="0.01"/>
<path d="M3.62477 9.99918C3.62458 8.79227 3.94211 7.60658 4.54544 6.5613C5.14877 5.51602 6.01664 4.64798 7.0618 4.04445C8.10697 3.44091 9.29259 3.12315 10.4995 3.1231C11.7064 3.12306 12.8921 3.44073 13.9373 4.04418C14.0807 4.12575 14.2507 4.14726 14.4099 4.10402C14.5692 4.06078 14.7049 3.95629 14.7874 3.81336C14.87 3.67043 14.8926 3.50066 14.8504 3.3411C14.8082 3.18154 14.7046 3.04515 14.5623 2.96168C13.0133 2.06741 11.2126 1.7092 9.43937 1.94263C7.66612 2.17605 6.01944 2.98806 4.75471 4.25271C3.48998 5.51736 2.67787 7.16399 2.44433 8.93722C2.21079 10.7105 2.56888 12.5112 3.46305 14.0602C4.35722 15.6092 5.73752 16.8198 7.38986 17.5044C9.04221 18.189 10.8743 18.3092 12.6019 17.8465C14.3296 17.3837 15.8563 16.3639 16.9452 14.945C18.0342 13.5262 18.6245 11.7877 18.6248 9.99918C18.6248 9.83342 18.5589 9.67445 18.4417 9.55724C18.3245 9.44003 18.1655 9.37418 17.9998 9.37418C17.834 9.37418 17.675 9.44003 17.5578 9.55724C17.4406 9.67445 17.3748 9.83342 17.3748 9.99918C17.3748 11.8225 16.6504 13.5712 15.3611 14.8605C14.0718 16.1499 12.3231 16.8742 10.4998 16.8742C8.6764 16.8742 6.92772 16.1499 5.63841 14.8605C4.3491 13.5712 3.62477 11.8225 3.62477 9.99918Z" fill="black"/>
<path d="M19.6923 4.19168C19.7504 4.13357 19.7965 4.06458 19.8279 3.98866C19.8594 3.91273 19.8756 3.83136 19.8756 3.74918C19.8756 3.667 19.8594 3.58562 19.8279 3.5097C19.7965 3.43377 19.7504 3.36479 19.6923 3.30668C19.6342 3.24857 19.5652 3.20247 19.4892 3.17102C19.4133 3.13958 19.3319 3.12339 19.2498 3.12339C19.1676 3.12339 19.0862 3.13958 19.0103 3.17102C18.9344 3.20247 18.8654 3.24857 18.8073 3.30668L10.4998 11.6154L7.19227 8.30668C7.13416 8.24857 7.06517 8.20247 6.98925 8.17102C6.91332 8.13958 6.83195 8.12339 6.74977 8.12339C6.66759 8.12339 6.58621 8.13958 6.51029 8.17102C6.43436 8.20247 6.36538 8.24857 6.30727 8.30668C6.24916 8.36479 6.20306 8.43377 6.17161 8.5097C6.14016 8.58562 6.12398 8.667 6.12398 8.74918C6.12398 8.83136 6.14016 8.91273 6.17161 8.98866C6.20306 9.06458 6.24916 9.13357 6.30727 9.19168L10.0573 12.9417C10.1153 12.9999 10.1843 13.0461 10.2602 13.0776C10.3362 13.1091 10.4176 13.1253 10.4998 13.1253C10.582 13.1253 10.6634 13.1091 10.7393 13.0776C10.8152 13.0461 10.8842 12.9999 10.9423 12.9417L19.6923 4.19168Z" fill="black"/>
</g>
<defs>
<clipPath id="clip0_459_104494">
<rect width="20" height="20" fill="white" transform="translate(0.5)"/>
</clipPath>
</defs>
</svg>
